<?xml version="1.0" encoding="UTF-8" standalone="no"?>
<!DOCTYPE svg PUBLIC "-//W3C//DTD SVG 1.1//EN" "http://www.w3.org/Graphics/SVG/1.1/DTD/svg11.dtd">
<svg width="100%" height="100%" viewBox="0 0 800 800" version="1.1" xmlns="http://www.w3.org/2000/svg" xmlns:xlink="http://www.w3.org/1999/xlink" xml:space="preserve" xmlns:serif="http://www.serif.com/" style="fill-rule:evenodd;clip-rule:evenodd;stroke-linejoin:round;stroke-miterlimit:2;">
    <g transform="matrix(2.523659,0,0,2.523659,76.971609,0)">
        <path d="M96.899,111.577C73.524,98.082 62.128,70.57 69.114,44.499C76.1,18.428 99.725,0.299 126.716,0.299C153.706,0.299 177.332,18.428 184.318,44.499C191.303,70.57 179.907,98.082 156.533,111.577L138.578,80.479C147.877,75.11 152.411,64.165 149.631,53.793C146.852,43.421 137.453,36.209 126.716,36.209C115.978,36.209 106.579,43.421 103.8,53.793C101.021,64.165 105.555,75.11 114.854,80.479L96.899,111.577Z" style="fill-rule:nonzero;"/>
        <g transform="matrix(-1,-0,0,-1,389.565218,363.307138)">
            <path d="M164.966,237.293C141.591,223.797 130.195,196.285 137.181,170.214C144.166,144.143 167.792,126.014 194.783,126.014C221.773,126.014 245.399,144.143 252.384,170.214C259.37,196.285 247.974,223.797 224.599,237.293L206.645,206.194C215.944,200.825 220.477,189.88 217.698,179.508C214.919,169.136 205.52,161.924 194.783,161.924C184.045,161.924 174.646,169.136 171.867,179.508C169.088,189.88 173.621,200.825 182.921,206.194L164.966,237.293Z" style="fill-rule:nonzero;"/>
        </g>
        <path d="M119.567,177.659C119.567,204.649 101.438,228.275 75.367,235.261C49.297,242.246 21.784,230.85 8.289,207.476C-5.207,184.101 -1.32,154.577 17.766,135.491C36.851,116.406 66.375,112.519 89.75,126.014L71.795,157.113C62.496,151.744 50.75,153.291 43.158,160.883C35.565,168.476 34.019,180.222 39.387,189.521C44.756,198.82 55.702,203.354 66.073,200.575C76.445,197.795 83.657,188.397 83.657,177.659L119.567,177.659Z" style="fill-rule:nonzero;"/>
        <path d="M17.329,251.591C22.376,251.137 27.479,251.141 32.501,251.86C35.596,252.408 38.879,253.209 41.204,255.465C43.64,258.183 44.239,261.959 44.774,265.439C45.652,272.661 45.549,279.986 44.774,287.212C44.256,290.74 43.747,294.55 41.435,297.418C38.914,299.978 35.189,300.706 31.773,301.245C26.73,301.875 21.614,302.02 16.55,301.515C13.121,301.164 9.542,300.56 6.623,298.604C4.735,297.405 3.72,295.29 3.031,293.24C1.648,288.967 1.473,284.43 1.284,279.978C1.263,274.096 1.374,268.154 2.521,262.366C3.142,259.664 3.896,256.694 6.177,254.891C9.392,252.558 13.481,251.993 17.329,251.591ZM18.164,259.652C16.041,259.973 13.395,260.148 12.115,262.126C10.998,265.076 11.036,268.295 10.809,271.399C10.702,276.934 10.424,282.52 11.28,288.013C11.597,289.866 12.248,292.075 14.307,292.619C18.772,293.985 23.549,293.754 28.151,293.492C30.446,293.141 33.49,292.944 34.607,290.543C35.887,286.887 35.797,282.94 35.956,279.121C35.904,273.753 36.204,268.282 34.92,263.029C34.611,261.163 32.676,260.367 31.037,260.037C26.807,259.206 22.441,259.309 18.164,259.652ZM63.259,268.321C66.325,266.373 70.13,266.056 73.666,266.377C76.967,266.66 80.631,267.781 82.399,270.821C84.51,274.635 84.63,279.143 84.775,283.398C84.681,287.773 84.6,292.341 82.793,296.408C81.762,298.878 79.39,300.496 76.851,301.134C72.964,302.089 68.692,302.191 64.946,300.642C62.921,299.85 61.521,298.129 60.361,296.365L60.361,316.361L51.799,316.361C51.804,299.811 51.791,283.257 51.804,266.707C54.573,266.694 57.343,266.694 60.109,266.707C60.014,268.41 59.92,270.11 59.873,271.818C60.901,270.564 61.855,269.185 63.259,268.321ZM66.046,272.79C64.009,272.948 61.791,273.959 61.213,276.09C60.121,279.849 60.314,283.83 60.473,287.7C60.738,290.222 61.05,293.471 63.735,294.601C66.62,295.719 69.951,295.659 72.87,294.704C75.396,293.814 75.764,290.843 76.029,288.548C76.295,284.746 76.389,280.868 75.644,277.114C75.392,275.658 74.642,274.155 73.221,273.543C70.978,272.554 68.444,272.606 66.046,272.79ZM95.02,268.385C99.228,266.223 104.155,266.146 108.774,266.364C112.619,266.685 117.285,267.327 119.404,271.005C121.793,275.444 121.403,280.667 121.737,285.538L98.316,285.538C98.59,288.051 98.265,290.761 99.532,293.064C100.615,294.884 102.914,295.256 104.857,295.363C107.259,295.38 109.845,295.577 112.058,294.46C113.325,293.467 113.334,291.703 113.496,290.247C116.236,290.243 118.976,290.243 121.716,290.247C121.613,293.107 121.245,296.309 118.95,298.321C115.504,301.412 110.572,301.733 106.163,301.819C102.272,301.703 98.162,301.506 94.677,299.588C91.856,297.923 90.957,294.503 90.46,291.489C89.831,287.011 89.673,282.448 90.208,277.953C90.645,274.404 91.599,270.23 95.02,268.385ZM100.024,273.834C98.235,275.465 98.41,278.171 98.333,280.388C103.367,280.414 108.402,280.401 113.441,280.393C113.432,278.398 113.625,276.223 112.546,274.447C111.488,273.008 109.506,272.914 107.88,272.738C105.255,272.7 102.361,272.413 100.024,273.834ZM139.969,268.363C142.932,266.308 146.759,266.022 150.244,266.424C153.21,266.737 156.353,267.867 158.104,270.427C159.658,272.55 160.09,275.256 160.111,277.828C160.098,285.68 160.116,293.527 160.107,301.378C157.393,301.382 154.683,301.382 151.978,301.378C151.965,293.951 151.986,286.527 151.965,279.104C151.883,277.482 151.948,275.607 150.727,274.357C149.426,272.948 147.384,272.674 145.565,272.687C143.364,272.674 140.984,273.051 139.289,274.571C137.632,275.983 137.003,278.261 136.994,280.367C136.981,287.371 136.999,294.374 136.986,301.374C134.276,301.382 131.566,301.382 128.86,301.378C128.856,289.819 128.856,278.261 128.86,266.702C131.523,266.694 134.19,266.698 136.853,266.702C136.84,268.732 136.639,270.748 136.579,272.777C137.452,271.137 138.368,269.408 139.969,268.363ZM174.829,253.175C179.316,251.668 184.097,251.454 188.789,251.287C193.336,251.308 198.087,251.351 202.334,253.183C204.492,254.082 205.986,256.051 206.714,258.226C207.899,261.475 207.934,264.994 207.959,268.415C204.83,268.415 201.701,268.423 198.576,268.41C198.524,266.005 198.708,263.308 197.218,261.261C195.712,259.72 193.357,259.724 191.358,259.489C187.291,259.412 183.057,259.151 179.161,260.555C177.757,261 177.03,262.404 176.747,263.757C175.946,267.387 175.942,271.133 175.946,274.836C175.994,279.785 175.917,284.806 176.974,289.674C177.252,291.455 178.892,292.551 180.536,292.944C184.337,293.891 188.306,293.754 192.188,293.522C194.213,293.257 196.679,293.124 197.951,291.266C199.308,289.049 199.081,286.322 199.008,283.83C202.167,283.818 205.322,283.822 208.482,283.83C208.443,287.765 208.375,291.827 206.945,295.552C206.208,297.499 204.689,299.152 202.719,299.897C198.854,301.446 194.616,301.545 190.515,301.793C185.758,301.875 180.942,301.759 176.293,300.65C173.566,299.94 170.587,298.689 169.324,295.98C167.71,292.397 167.415,288.411 166.999,284.554C166.653,279.46 166.43,274.357 166.554,269.254C166.798,265.123 167.175,260.769 169.405,257.169C170.591,255.165 172.672,253.911 174.829,253.175ZM210.023,251.732C213.285,251.736 216.547,251.642 219.805,251.779C222.977,261.843 226.462,271.805 229.664,281.857C230.909,285.718 231.791,289.691 233.08,293.54C234.523,289.387 235.447,285.072 236.86,280.911C239.989,271.189 243.204,261.497 246.329,251.775C249.549,251.638 252.776,251.758 256,251.715L256,252.781C250.7,268.933 245.525,285.127 240.332,301.318C235.486,301.416 230.631,301.429 225.785,301.309C220.622,284.755 215.211,268.278 210.023,251.732Z" style="fill:rgb(5,5,5);fill-rule:nonzero;"/>
    </g>
</svg>
